#!OML:ASF \\sashay\E\basketball\basketball\Project 1\Capture day 1\Session 1\Subject.ASF
:FULLY-SPECIFIED
:DEGREES
294
root -30.9724 13.6185 -6.55131 181.577 -14.8444 -180.82
lowerback 36.2457 6.19468 -4.9803
upperback 11.3599 2.80162 0.76449
thorax -5.71964 -0.12317 2.51798
lowerneck -4.0202 2.46529 -15.2369
upperneck -30.3833 3.67987 17.9244
head -9.38092 0.139439 9.36042
rclavicle 5.11871e-014 -1.97542e-015
rhumerus -10.951 -11.2291 -78.7733
rradius 37.4643
rwrist 10.6481
rhand -18.6177 30.3053
rfingers 7.12502
rthumb 7.67414 0.464558
lclavicle 5.11871e-014 -1.97542e-015
lhumerus -11.2387 -2.69236 79.8757
lradius 35.5649
lwrist 19.0613
lhand -9.69326 16.9487
lfingers 7.12502
lthumb 16.279 46.2853
rfemur -40.8533 -21.9068 -0.604825
rtibia 65.2579
rfoot -16.6289 -11.4576
rtoes -20.1248
lfemur -48.4617 30.41 -15.8911
ltibia 70.5705
lfoot -13.2781 0.503105
ltoes -36.036
295
root -30.9034 13.5989 -6.55422 181.596 -14.6719 -180.956
lowerback 36.0236 6.10423 -4.93828
upperback 11.3626 2.72658 0.703758
thorax -5.63054 -0.152095 2.46434
lowerneck -3.88406 2.45788 -15.3431
upperneck -30.7525 3.66139 18.1982
head -9.54441 0.0749075 9.53926
rclavicle -5.07025e-014 2.61402e-014
rhumerus -10.9554 -10.7976 -78.9476
rradius 37.6466
rwrist 10.1129
rhand -18.7599 29.9283
rfingers 7.12502
rthumb 7.53692 0.0825907
lclavicle -5.07025e-014 2.61402e-014
lhumerus -11.7119 -3.38672 80.2178
lradius 35.4463
lwrist 19.4502
lhand -10.1402 16.5358
lfingers 7.12502
lthumb 15.8486 45.9072
rfemur -40.7312 -21.7245 -0.741463
rtibia 64.9561
rfoot -16.6123 -12.0603
rtoes -19.1541
lfemur -48.4704 30.6336 -15.747
ltibia 70.4821
lfoot -12.8971 0.530147
ltoes -37.37
296
root -30.833 13.5758 -6.5627 181.541 -14.2321 -181.062
lowerback 35.7524 5.82958 -4.26969
upperback 11.4286 2.54736 -0.0698738
thorax -5.38721 -0.212816 1.37547
lowerneck -3.56192 2.54154 -14.6816
upperneck -31.2958 3.80248 18.6002
head -9.8242 -0.0474543 9.64223
rclavicle -3.34952e-014 4.14466e-014
rhumerus -10.8358 -11.3256 -80.191
rradius 37.6728
rwrist 10.1739
rhand -18.6661 29.6126
rfingers 7.12502
rthumb 7.62746 -0.229863
lclavicle -3.34952e-014 4.14466e-014
lhumerus -12.1095 -4.74173 79.5212
lradius 35.5133
lwrist 20.0929
lhand -10.5668 16.3026
lfingers 7.12502
lthumb 15.4378 45.7061
rfemur -40.6471 -21.1527 -0.802928
rtibia 64.6806
rfoot -16.4589 -12.9507
rtoes -18.3201
lfemur -48.3624 31.2339 -15.4868
ltibia 70.4486
lfoot -12.4791 0.36541
ltoes -37.8423
297
root -30.7595 13.5522 -6.57089 181.465 -13.816 -181.201
lowerback 35.6539 5.86836 -4.18912
upperback 11.381 2.62757 -0.223138
thorax -5.39744 -0.163672 1.14607
lowerneck -3.25523 2.58546 -14.4937
upperneck -31.7306 3.84376 18.7673
head -10.0558 -0.115704 9.73247
rclavicle 1.11319e-014 -5.1684e-015
rhumerus -10.8052 -11.4971 -80.4871
rradius 37.68
rwrist 10.2268
rhand -18.304 28.7111
rfingers 7.12502
rthumb 7.9769 -1.1184
lclavicle 1.11319e-014 -5.1684e-015
lhumerus -12.5703 -4.99733 79.7621
lradius 35.4979
lwrist 20.4719
lhand -9.98184 16.4929
lfingers 7.12502
lthumb 16.0011 45.8521
rfemur -40.5873 -20.8982 -0.775537
rtibia 64.6584
rfoot -15.6926 -13.6939
rtoes -19.5328
lfemur -48.1743 31.6601 -15.1757
ltibia 70.4151
lfoot -12.2141 0.283623
ltoes -38.2312
298
root -30.6869 13.5439 -6.57118 181.432 -13.6806 -181.32
lowerback 35.5692 5.90377 -4.1731
upperback 11.336 2.72015 -0.0748882
thorax -5.42809 -0.113221 1.26204
lowerneck -3.15631 2.55423 -14.5637
upperneck -31.9578 3.78744 18.9174
head -10.1539 -0.173533 9.8433
rclavicle -3.27995e-015 4.76089e-014
rhumerus -10.77 -11.3487 -80.2877
rradius 37.6814
rwrist 10.0292
rhand -18.0013 27.9206
rfingers 7.12502
rthumb 8.26911 -1.89752
lclavicle -3.27995e-015 4.76089e-014
lhumerus -12.8983 -4.63768 80.4315
lradius 35.4437
lwrist 20.977
lhand -9.23688 16.8569
lfingers 7.12502
lthumb 16.7184 46.157
rfemur -40.666 -21.0876 -0.588693
rtibia 64.9422
rfoot -14.9167 -13.8418
rtoes -22.3723
lfemur -48.0446 31.8481 -14.9485
ltibia 70.2702
lfoot -12.1611 0.219866
ltoes -39.3062
299
root -30.6162 13.5312 -6.56992 181.35 -13.6368 -181.342
lowerback 35.4807 5.76399 -3.77723
upperback 11.3365 2.69419 -0.117197
thorax -5.37784 -0.112633 1.02412
lowerneck -2.94411 2.59617 -14.4129
upperneck -32.3146 3.7732 18.7166
head -10.3294 -0.207109 9.77658
rclavicle -1.79403e-014 -7.67806e-015
rhumerus -10.7142 -11.5009 -80.3512
rradius 37.7027
rwrist 10.2019
rhand -17.6982 27.9003
rfingers 7.12502
rthumb 8.56158 -1.90609
lclavicle -1.79403e-014 -7.67806e-015
lhumerus -13.2579 -4.60567 80.833
lradius 35.4191
lwrist 21.4106
lhand -9.63465 16.6524
lfingers 7.12502
lthumb 16.3355 45.9844
rfemur -41.1268 -22.1609 -0.122808
rtibia 65.5571
rfoot -15.0176 -12.9062
rtoes -26.8822
lfemur -47.9465 31.967 -14.626
ltibia 70.1035
lfoot -12.147 0.137535
ltoes -39.554
300
root -30.5473 13.5307 -6.56974 181.238 -13.4756 -181.528
lowerback 35.4297 5.68385 -3.61417
upperback 11.3384 2.6467 -0.182079
thorax -5.3465 -0.130956 0.889678
lowerneck -2.6438 2.79361 -14.7186
upperneck -32.6104 4.05902 18.9561
head -10.5794 -0.0882654 9.97211
rclavicle 7.83957e-015 -2.65253e-014
rhumerus -10.7295 -11.4241 -80.3617
rradius 37.8499
rwrist 10.4863
rhand -17.6366 27.858
rfingers 7.12502
rthumb 8.62101 -1.94601
lclavicle 7.83957e-015 -2.65253e-014
lhumerus -13.7149 -4.66499 81.2358
lradius 35.2418
lwrist 21.6137
lhand -10.4407 15.9475
lfingers 7.12502
lthumb 15.5592 45.3416
rfemur -41.6393 -22.8758 0.185513
rtibia 66.2609
rfoot -15.4824 -12.0909
rtoes -30.1876
lfemur -47.613 32.0921 -14.4126
ltibia 69.8475
lfoot -12.038 0.050294
ltoes -38.6659
301
root -30.4723 13.531 -6.56837 181.173 -13.1167 -181.719
lowerback 35.39 5.86354 -4.1978
upperback 11.1924 2.74735 0.207359
thorax -5.54036 -0.0864642 1.56507
lowerneck -2.75424 2.76207 -14.5367
upperneck -32.6636 3.93427 18.7935
head -10.5472 -0.170246 9.87885
rclavicle 7.57867e-014 -3.77194e-014
rhumerus -10.8149 -10.6886 -79.8119
rradius 37.9263
rwrist 10.6409
rhand -18.0626 27.6266
rfingers 7.12502
rthumb 8.20988 -2.19393
lclavicle 7.57867e-014 -3.77194e-014
lhumerus -14.4291 -3.65478 82.1367
lradius 34.9697
lwrist 21.449
lhand -10.4822 15.5728
lfingers 7.12502
lthumb 15.5192 44.97
rfemur -42.1993 -22.6693 0.459256
rtibia 66.9137
rfoot -15.5914 -11.9709
rtoes -29.5839
lfemur -47.2931 32.4095 -14.1816
ltibia 69.5942
lfoot -11.7576 -0.0383336
ltoes -38.4183
302
root -30.3884 13.5058 -6.5681 181.101 -12.775 -182.012
lowerback 35.4206 6.17855 -4.79021
upperback 11.0765 3.01112 0.691886
thorax -5.74566 0.0311217 2.28486
lowerneck -3.01141 2.53872 -15.1584
upperneck -32.5742 3.65011 19.2099
head -10.4147 -0.265081 10.1801
rclavicle -7.40473e-014 3.48867e-014
rhumerus -10.8739 -10.321 -78.9917
rradius 37.9938
rwrist 10.5513
rhand -18.832 27.6414
rfingers 7.12502
rthumb 7.46734 -2.20677
lclavicle -7.40473e-014 3.48867e-014
lhumerus -14.9485 -2.64095 83.2856
lradius 34.6703
lwrist 21.3111
lhand -10.3745 15.6503
lfingers 7.12502
lthumb 15.623 45.0394
rfemur -42.9015 -23.1564 0.655965
rtibia 67.5942
rfoot -15.4307 -11.2739
rtoes -26.9456
lfemur -47.0746 32.7975 -14.0115
ltibia 69.4246
lfoot -11.4303 -0.158342
ltoes -39.3057
303
root -30.3069 13.4831 -6.56737 180.955 -12.6319 -182.341
lowerback 35.4873 6.30378 -4.92244
upperback 11.0917 3.12922 0.911087
thorax -5.78039 0.0746963 2.54001
lowerneck -3.18484 2.22773 -16.1636
upperneck -32.6144 3.34783 20.2678
head -10.3479 -0.402794 10.861
rclavicle -5.12864e-014 1.82882e-014
rhumerus -10.7457 -10.5318 -78.5144
rradius 38.0718
rwrist 10.52
rhand -19.3687 28.116
rfingers 7.12502
rthumb 6.94927 -1.7499
lclavicle -5.12864e-014 1.82882e-014
lhumerus -15.1509 -1.9693 84.0759
lradius 34.368
lwrist 21.6122
lhand -10.3728 15.8774
lfingers 7.12502
lthumb 15.6246 45.2664
rfemur -43.3399 -23.5424 0.686352
rtibia 68.1836
rfoot -15.3833 -10.7552
rtoes -24.5393
lfemur -46.7853 33.0231 -13.8933
ltibia 69.2405
lfoot -11.1475 -0.147102
ltoes -41.1519
304
root -30.229 13.4657 -6.5648 180.796 -12.5019 -182.475
lowerback 35.53 6.23994 -5.14667
upperback 11.0264 2.99136 1.08997
thorax -5.87874 0.00582096 2.89358
lowerneck -3.18026 2.3726 -16.3144
upperneck -32.6679 3.51988 20.3174
head -10.418 -0.324497 10.9189
rclavicle 6.75868e-015 4.67144e-014
rhumerus -10.4498 -10.9203 -78.532
rradius 38.0543
rwrist 11.3301
rhand -19.6241 28.5514
rfingers 7.12502
rthumb 6.70272 -1.32249
lclavicle 6.75868e-015 4.67144e-014
lhumerus -15.5479 -0.317017 84.4849
lradius 34.0202
lwrist 21.3963
lhand -10.5443 15.8893
lfingers 7.12502
lthumb 15.4595 45.2911
rfemur -43.7044 -23.7884 0.928972
rtibia 68.6959
rfoot -15.3057 -10.5108
rtoes -23.7631
lfemur -46.5426 33.1128 -13.6061
ltibia 69.0861
lfoot -10.869 0.230159
ltoes -43.0043
